<?xml version="1.0" encoding="UTF-8"?>
<svg id="Layer_1" data-name="Layer 1" xmlns="http://www.w3.org/2000/svg" viewBox="0 0 1080 1080">
  <defs>
    <style>
      .cls-1, .cls-2 {
        fill: #fff;
        stroke-width: 0px;
      }

      .cls-2 {
        fill-rule: evenodd;
      }
    </style>
  </defs>
  <path class="cls-1" d="M681.83,897.52c9.74-26.81,19.48-53.61,29.59-81.43-7.01-.79-13.55-2.27-19.97-1.88-2.59.16-5.65,3.99-7.27,6.84-10,17.67-19.66,35.53-29.42,53.33-14.08,25.68-28.14,51.38-42.23,77.05-.82,1.49-1.82,2.87-3.7,3.78,20.21-55.63,40.42-111.27,60.76-167.27,15.69,4.72,30.96,9.31,46.74,14.05,8.05-22.01,16-43.71,24.19-66.09,22.67,6.88,45.1,13.68,68.03,20.64,8.75-24.12,17.37-47.86,26.13-71.99-3.62-.11-6.59-.2-9.55-.29-.11-.32-.23-.64-.34-.96,10.27-5.55,20.55-11.11,31.4-16.97,2.3,13.5,4.47,26.26,6.64,39.02-.34.12-.68.23-1.02.35-2-2.84-4-5.68-6.58-9.32-23.21,42.33-46.1,84.06-68.99,125.8-.43-.2-.85-.41-1.28-.61,6.51-17.99,13.03-35.98,19.81-54.72-2.03-.32-3.69-.62-5.36-.83-10.34-1.31-20.68-2.59-31.02-3.9-8.46-1.07-9.72-.46-13.76,6.94-21.96,40.21-43.9,80.43-65.9,120.63-1.66,3.04-3.69,5.88-5.55,8.81-.46-.33-.91-.66-1.37-.99Z"/>
  <path class="cls-1" d="M427.56,897.52c-9.74-26.81-19.48-53.61-29.59-81.43,7.01-.79,13.55-2.27,19.97-1.88,2.59.16,5.65,3.99,7.27,6.84,10,17.67,19.66,35.53,29.42,53.33,14.08,25.68,28.14,51.38,42.23,77.05.82,1.49,1.82,2.87,3.7,3.78-20.21-55.63-40.42-111.27-60.76-167.27-15.69,4.72-30.96,9.31-46.74,14.05-8.05-22.01-16-43.71-24.19-66.09-22.67,6.88-45.1,13.68-68.03,20.64-8.75-24.12-17.37-47.86-26.13-71.99,3.62-.11,6.59-.2,9.55-.29.11-.32.23-.64.34-.96-10.27-5.55-20.55-11.11-31.4-16.97-2.3,13.5-4.47,26.26-6.64,39.02.34.12.68.23,1.02.35,2-2.84,4-5.68,6.58-9.32,23.21,42.33,46.1,84.06,68.99,125.8.43-.2.85-.41,1.28-.61-6.51-17.99-13.03-35.98-19.81-54.72,2.03-.32,3.69-.62,5.36-.83,10.34-1.31,20.68-2.59,31.02-3.9,8.46-1.07,9.72-.46,13.76,6.94,21.96,40.21,43.9,80.43,65.9,120.63,1.66,3.04,3.69,5.88,5.55,8.81.46-.33.91-.66,1.37-.99Z"/>
  <g>
    <path class="cls-2" d="M365.18,251.1c-9.98,11.27-18.73,23.61-26.11,36.8-16.7,29.28-27.37,61.74-31.34,95.38-1.85,20.23-1.85,40.59,0,60.82h83.7v64.34c-3.69-5.71-6.82-11.78-9.35-18.12-2.89-6.46-4.95-14.05-7.7-19.95h-61.71c0,12.36,16.77,50.71,22.13,61.11,4.82,9.06,10.14,17.83,15.94,26.27l18.28,23.18c7.28,6.88,13.74,14.05,20.48,21.49l61.16,61.95V163.03c-3.44,2.25-30.79,31.19-36.28,36.66l-18,18.4c-5.22,5.34-5.36,3.09-5.22,13.34v129.09c0,10.25,1.37,9.13-4.26,14.05-2.76,3.08-5.69,5.99-8.8,8.71-3.37-2.65-6.5-5.61-9.35-8.85-4.95-4.78-3.44-5.34-3.44-14.05,0-18.96.82-97.07,0-109.43l-.14.14Z"/>
    <path class="cls-2" d="M710.98,310.66c12.09,12.08,20.2,46.22,24.46,62.93h62.4c1.65-19.81-12.37-54.92-20.34-70.24-15.82-28.72-35.53-55.02-58.55-78.1-1.92-2.25-3.85-3.51-5.77-5.62-14.57-15.17-24.6-24.86-41.23-39.33-3.99-4.07-20.48-20.79-23.64-21.63v489.13c3.99-3.23,7.83-7.45,11.82-11.24,28.18-25,55.11-51.45,80.68-79.23,14.42-16.44,26.7-34.71,36.56-54.36,10.77-21.99,17.57-45.78,20.07-70.24h-61.99c-4.12,18.12-13.74,51.69-24.46,62.93v-185Z"/>
    <path class="cls-1" d="M621.51,675.47c0,8.99,0,6.04-9.21,16.15l-62.95,64.34c-3.96-3.43-7.72-7.09-11.27-10.96l-56.21-57.59c-6.73-6.6-5.09-5.06-5.09-17.56,0-19.67-.96-199.89,0-207.76h58.96v189.64c-.2,1.3-.2,2.63,0,3.93l11.96,12.64,12.37-12.36c.9-11.45.9-22.96,0-34.42v-123.76c0-19.95.82-42.14,0-61.53h-85.08c1.51-95.52,0-196.66,0-293.73,0-15.31-1.37-12.08,6.6-20.23,4.54-2.95,50.85-51.27,54.56-53.52.96,26.13,0,53.66,0,79.93v210.71q0,4.78,2.89,7.16c3.11,3.53,6.51,6.77,10.17,9.69,15.12-15.17,12.51-9.83,12.51-26.69v-200.03c0-26.55-.69-54.36,0-80.77,8.84,7.94,17.28,16.33,25.29,25.14l31.06,31.75c3.57,3.37,3.16,3.51,3.16,9.97-.41,94.12-.41,189.5-.41,283.05,0,84.56,0,172.5.69,256.78Z"/>
  </g>
  <g>
    <path class="cls-1" d="M895.35,562.62c-1.3,22.07-10.29,38.75-27.12,50.06-35.77,24.03-72.17,47.13-108.31,70.6-52.9,34.36-105.88,68.6-158.54,103.31-3.08,2.03-5.22,7.78-5.25,11.81-.36,50.6-.95,101.21.07,151.79.47,23.12-11.14,37.72-28.72,51.8-.32-3.88-.74-6.55-.74-9.21,0-69.61.15-139.23-.08-208.84-.02-7.11,2.63-10.88,8.39-14.6,75.93-49.05,151.68-98.36,227.5-147.59,28.08-18.23,56.18-36.43,84.31-54.59,2.33-1.5,4.89-2.63,8.51-4.55Z"/>
    <path class="cls-1" d="M541.42,1002.36c-17.76-14.03-29.52-28.24-29.14-50.95.85-50.9.15-101.82.4-152.73.03-6.12-1.57-9.81-6.88-13.23-56.53-36.44-112.87-73.18-169.28-109.81-31.57-20.5-63.21-40.88-94.72-61.47-17.14-11.2-27.92-30.5-28.37-51.1,3.22,1.61,6.08,2.71,8.6,4.35,52.04,33.88,103.97,67.92,156.07,101.71,41.04,26.62,82.28,52.92,123.4,79.41,11.36,7.32,22.85,14.47,33.73,22.45,3.07,2.25,5.92,7.15,5.94,10.85.35,72.8.26,145.61.26,220.53Z"/>
  </g>
</svg>