<?xml version="1.0" encoding="UTF-8"?>
<svg id="Layer_1" data-name="Layer 1" xmlns="http://www.w3.org/2000/svg" viewBox="0 0 1080 1080">
  <defs>
    <style>
      .cls-1 {
        fill: #fff;
        stroke-width: 0px;
      }
    </style>
  </defs>
  <path class="cls-1" d="M331.9,627.04c17.26.97,34.56.97,51.82,0,28.03-5.89,56.09,9.88,65.65,36.88,25.82,50.89,56.61,99.21,86.3,150.29,23.79-20.1,28.4-38.54,11.43-64.91-29.32-45.92-54.03-94.78-83.53-140.51-8.87-13.18-23.41-21.44-39.28-22.31-92.2,18.44-142.91-23.05-178.87-105.48-30.61-70.07-74.5-134.24-117.46-208,26.61-1.34,53.28-.97,79.85,1.11,11.95,3.57,22.1,11.55,28.4,22.31,34.85,58.09,69.33,116.73,101.6,176.29,13.28,24.53,28.21,36.88,63.25,25.45l-125.39-218.7c76.71-18.44,87.41-13.65,123,47.76,81.14,140.51,161.9,281.21,243.78,421.36,12.17,15.94,12.69,37.9,1.29,54.4-35.59,57.72-68.41,116.91-105.29,180.9-68.97-118.75-135.53-234-206.53-356.82Z"/>
  <path class="cls-1" d="M755.47,443.93c18.44-33.19,30.79-56.24,43.7-79.48-45.73-15.86-51.82-13.65-73.76,24.53-16.6,28.77-33.01,57.72-49.79,86.3q-26.37,44.81,7.01,88.51,59.93-86.48,141.8-76.16l-141.99,246.91c-41.86-72.65-81.87-140.51-120.04-209.48-3.69-6.45,1.11-20.28,5.72-28.58,38.72-68.23,77.45-136.27,118.2-202.84,8-10.7,20.24-17.43,33.56-18.44,73.76-1.66,146.23-.92,229.03-.92-33.38,55.87-58.82,111.93-95.7,157.11-14.94,16.41-59.56,8.67-97.73,12.54Z"/>
  <path class="cls-1" d="M462.09,927.25c-217.41-31.9-408.08-269.04-321.96-547.86,23.23,54.21,61.77,89.62,63.62,147.52,4.06,122.44,64.72,211.69,164.67,281.4,37.43,26.74,59.56,73.94,93.68,118.94Z"/>
  <path class="cls-1" d="M623.07,925.4c31.35-53.11,56.8-104.92,112.3-140.7,82.2-51.26,132.86-140.65,134.61-237.51,2.21-63.43,33.93-108.98,64.91-159.51,94.04,211.88-78.55,509.68-311.82,537.71Z"/>
  <path class="cls-1" d="M840.48,229.84c-59.75-1.84-115.43,7.19-172.05-20.84-78.61-40.46-171.63-41.75-251.34-3.5-59.38,28.03-117.09,23.97-179.24,24.53,129.27-171.31,450.86-185.51,602.62-.18Z"/>
  <path class="cls-1" d="M422.07,275.02h231.98c-39.09,67.86-75.6,131.66-115.8,201.37-39.46-68.78-76.53-132.95-116.17-201.37Z"/>
</svg>