<?xml version="1.0" encoding="UTF-8"?>
<svg id="Layer_1" data-name="Layer 1" xmlns="http://www.w3.org/2000/svg" viewBox="0 0 1080 1080">
  <defs>
    <style>
      .cls-1, .cls-2 {
        fill: #fff;
        stroke-width: 0px;
      }

      .cls-2 {
        fill-rule: evenodd;
      }
    </style>
  </defs>
  <g>
    <path class="cls-1" d="M408,431.85h-79.42c-2.46,12.62-4.17,25.51-5.2,38.58h77.76c1.34-13.17,3.65-26.06,6.86-38.58Z"/>
    <path class="cls-1" d="M452.41,339.25h-91.33c-6.51,12.44-12.31,25.3-17.28,38.58h84.64c6.91-13.57,14.9-26.49,23.96-38.58Z"/>
    <path class="cls-1" d="M401.14,524.45h-77.76c1.02,13.08,2.74,25.96,5.2,38.58h79.42c-3.2-12.53-5.52-25.41-6.86-38.58Z"/>
    <path class="cls-1" d="M663.78,155.89c-108.42,0-204.96,50.57-267.53,129.35h110.49c43.89-32.53,98.21-51.79,157.04-51.79,145.8,0,264,118.2,264,264s-118.2,264-264,264c-58.83,0-113.15-19.26-157.04-51.79h-110.49c62.57,78.77,159.11,129.35,267.53,129.35,188.64,0,341.56-152.92,341.56-341.55s-152.92-341.55-341.56-341.55Z"/>
    <path class="cls-1" d="M428.45,617.05h-84.64c4.97,13.28,10.77,26.15,17.28,38.58h91.33c-9.06-12.09-17.05-25.01-23.96-38.58Z"/>
    <rect class="cls-1" x="151.53" y="285.24" width="80.99" height="54.02"/>
    <path class="cls-1" d="M263.17,285.24v54.02h97.91c10.03-19.15,21.82-37.22,35.16-54.02h-133.08Z"/>
    <rect class="cls-1" x="105.23" y="377.84" width="80.99" height="54.02"/>
    <path class="cls-1" d="M216.87,377.84v54.02h111.71c3.62-18.59,8.72-36.64,15.22-54.02h-126.93Z"/>
    <rect class="cls-1" x="151.53" y="655.64" width="80.99" height="54.02"/>
    <path class="cls-1" d="M263.17,655.64v54.02h133.08c-13.34-16.8-25.13-34.86-35.16-54.02h-97.91Z"/>
    <rect class="cls-1" x="105.23" y="563.04" width="80.99" height="54.02"/>
    <path class="cls-1" d="M216.87,563.04v54.02h126.93c-6.5-17.38-11.6-35.43-15.22-54.02h-111.71Z"/>
    <rect class="cls-1" x="58.93" y="470.44" width="80.99" height="54.02"/>
    <path class="cls-1" d="M323.39,470.44h-152.81v54.02h152.81c-.7-8.92-1.16-17.91-1.16-27.01s.46-18.09,1.16-27.01Z"/>
  </g>
  <g>
    <path class="cls-2" d="M542.74,391.52c-6.43,7.26-12.07,15.21-16.83,23.71-10.76,18.86-17.63,39.78-20.19,61.46-1.19,13.04-1.19,26.16,0,39.19h53.93v41.45c-2.38-3.68-4.39-7.59-6.02-11.68-1.86-4.16-3.19-9.05-4.96-12.85h-39.76c0,7.97,10.8,32.67,14.26,39.37,3.1,5.84,6.53,11.49,10.27,16.93l11.78,14.93c4.69,4.44,8.86,9.05,13.2,13.85l39.41,39.92v-323.04c-2.21,1.45-19.84,20.09-23.38,23.62l-11.6,11.86c-3.37,3.44-3.45,1.99-3.37,8.6v83.18c0,6.61.89,5.88-2.75,9.05-1.78,1.99-3.67,3.86-5.67,5.61-2.17-1.71-4.19-3.62-6.02-5.7-3.19-3.08-2.21-3.44-2.21-9.05,0-12.22.53-62.54,0-70.51l-.09.09Z"/>
    <path class="cls-2" d="M765.55,429.9c7.79,7.78,13.02,29.78,15.76,40.55h40.21c1.06-12.76-7.97-35.39-13.11-45.26-10.19-18.51-22.89-35.45-37.73-50.32-1.24-1.45-2.48-2.26-3.72-3.62-9.39-9.78-15.85-16.02-26.57-25.34-2.57-2.62-13.2-13.4-15.23-13.94v315.16c2.57-2.08,5.05-4.8,7.62-7.24,18.16-16.11,35.51-33.15,51.98-51.05,9.29-10.6,17.21-22.37,23.56-35.03,6.94-14.17,11.32-29.5,12.93-45.26h-39.94c-2.66,11.68-8.86,33.31-15.76,40.55v-119.2Z"/>
    <path class="cls-1" d="M707.9,664.96c0,5.79,0,3.89-5.93,10.41l-40.56,41.45c-2.55-2.21-4.98-4.57-7.26-7.06l-36.22-37.11c-4.34-4.25-3.28-3.26-3.28-11.31,0-12.67-.62-128.8,0-133.87h37.99v122.19c-.13.84-.13,1.69,0,2.53l7.7,8.15,7.97-7.97c.58-7.38.58-14.8,0-22.18v-79.74c0-12.85.53-27.15,0-39.64h-54.82c.97-61.55,0-126.72,0-189.26,0-9.87-.89-7.78,4.25-13.03,2.92-1.9,32.77-33.04,35.16-34.49.62,16.84,0,34.58,0,51.5v135.77q0,3.08,1.86,4.62c2,2.27,4.2,4.36,6.55,6.25,9.74-9.78,8.06-6.34,8.06-17.2v-128.89c0-17.11-.44-35.03,0-52.04,5.7,5.11,11.14,10.52,16.29,16.2l20.01,20.46c2.3,2.17,2.04,2.26,2.04,6.43-.27,60.64-.27,122.1-.27,182.38,0,54.49,0,111.15.44,165.46Z"/>
  </g>
</svg>