<?xml version="1.0" encoding="UTF-8"?>
<svg id="Layer_1" data-name="Layer 1" xmlns="http://www.w3.org/2000/svg" viewBox="0 0 1080 1080">
  <defs>
    <style>
      .cls-1, .cls-2 {
        fill: #fff;
        stroke-width: 0px;
      }

      .cls-2 {
        fill-rule: evenodd;
      }
    </style>
  </defs>
  <path class="cls-2" d="M293.72,327.59c-13.19,14.58-24.76,30.53-34.52,47.6-22.08,37.86-36.18,79.84-41.42,123.36-2.45,26.16-2.45,52.5,0,78.67h110.64v83.21c-4.88-7.39-9.01-15.24-12.35-23.44-3.82-8.36-6.54-18.17-10.17-25.8h-81.57c0,15.99,22.16,65.59,29.25,79.03,6.37,11.72,13.4,23.06,21.07,33.97l24.16,29.98c9.63,8.9,18.17,18.17,27.07,27.8l80.85,80.12V213.68c-4.54,2.91-40.7,40.33-47.96,47.42l-23.8,23.8c-6.9,6.9-7.09,4-6.9,17.26v166.96c0,13.26,1.82,11.81-5.63,18.17-3.65,3.99-7.53,7.75-11.63,11.26-4.46-3.43-8.59-7.26-12.35-11.45-6.54-6.18-4.54-6.9-4.54-18.17,0-24.53,1.09-125.54,0-141.53l-.18.18Z"/>
  <path class="cls-2" d="M750.81,404.63c15.99,15.62,26.71,59.77,32.34,81.39h82.48c2.18-25.62-16.35-71.04-26.89-90.84-20.91-37.15-46.96-71.16-77.39-101.01-2.54-2.91-5.09-4.54-7.63-7.27-19.26-19.62-32.52-32.16-54.5-50.87-5.27-5.27-27.07-26.89-31.25-27.98v632.6c5.27-4.18,10.36-9.63,15.62-14.53,37.25-32.34,72.84-66.54,106.64-102.47,19.06-21.27,35.3-44.9,48.33-70.31,14.24-28.43,23.23-59.21,26.52-90.84h-81.94c-5.45,23.44-18.17,66.86-32.34,81.39v-239.27Z"/>
  <path class="cls-1" d="M632.54,876.44c0,11.63,0,7.81-12.17,20.89l-83.21,83.21c-5.23-4.43-10.21-9.16-14.9-14.17l-74.31-74.49c-8.9-8.54-6.72-6.54-6.72-22.71,0-25.43-1.27-258.52,0-268.7h77.94v245.26c-.26,1.69-.26,3.4,0,5.09l15.81,16.35,16.35-15.99c1.18-14.81,1.18-29.7,0-44.51v-160.06c0-25.8,1.09-54.5,0-79.57h-112.46c2-123.54,0-254.35,0-379.88,0-19.8-1.82-15.62,8.72-26.16,6-3.82,67.22-66.31,72.13-69.22,1.27,33.79,0,69.4,0,103.37v272.51q0,6.18,3.82,9.27c4.11,4.56,8.61,8.75,13.44,12.54,19.98-19.62,16.53-12.72,16.53-34.52V196.24c0-34.34-.91-70.31,0-104.46,11.69,10.26,22.85,21.12,33.43,32.52l41.06,41.06c4.72,4.36,4.18,4.54,4.18,12.9-.55,121.72-.55,245.08-.55,366.08,0,109.37,0,223.1.91,332.1Z"/>
</svg>